<svg id="Layer_2" data-name="Layer 2" xmlns="http://www.w3.org/2000/svg" xmlns:xlink="http://www.w3.org/1999/xlink" viewBox="0 0 2500 2500"><defs><style>.cls-1,.cls-10,.cls-11,.cls-12,.cls-13,.cls-14,.cls-15,.cls-2,.cls-3,.cls-4,.cls-5,.cls-6,.cls-7,.cls-8,.cls-9{opacity:0.5;}.cls-1{fill:url(#linear-gradient);}.cls-2{fill:url(#linear-gradient-2);}.cls-3{fill:url(#linear-gradient-3);}.cls-4{fill:url(#linear-gradient-4);}.cls-5{fill:url(#linear-gradient-5);}.cls-6{fill:url(#linear-gradient-6);}.cls-7{fill:url(#linear-gradient-7);}.cls-8{fill:url(#linear-gradient-8);}.cls-9{fill:url(#linear-gradient-9);}.cls-10{fill:url(#linear-gradient-10);}.cls-11{fill:url(#linear-gradient-11);}.cls-12{fill:url(#linear-gradient-12);}.cls-13{fill:url(#linear-gradient-13);}.cls-14{fill:url(#linear-gradient-14);}.cls-15{fill:url(#linear-gradient-15);}.cls-16{fill:#02490f;}</style><linearGradient id="linear-gradient" x1="367.31" y1="1315.93" x2="373.25" y2="1205.31" gradientUnits="userSpaceOnUse"><stop offset="0" stop-color="#018d43"/><stop offset="1" stop-color="#87bd40"/></linearGradient><linearGradient id="linear-gradient-2" x1="493.16" y1="1360.56" x2="501.37" y2="1207.72" xlink:href="#linear-gradient"/><linearGradient id="linear-gradient-3" x1="422.94" y1="1331.19" x2="458.02" y2="678.31" xlink:href="#linear-gradient"/><linearGradient id="linear-gradient-4" x1="90.68" y1="1412.29" x2="120.09" y2="864.95" xlink:href="#linear-gradient"/><linearGradient id="linear-gradient-5" x1="268.16" y1="1443.4" x2="311.56" y2="635.59" xlink:href="#linear-gradient"/><linearGradient id="linear-gradient-6" x1="401.79" y1="1410.11" x2="420.3" y2="1065.53" xlink:href="#linear-gradient"/><linearGradient id="linear-gradient-7" x1="170.2" y1="1353.81" x2="200.33" y2="792.95" xlink:href="#linear-gradient"/><linearGradient id="linear-gradient-8" x1="289.09" y1="1436.92" x2="324.06" y2="786.18" xlink:href="#linear-gradient"/><linearGradient id="linear-gradient-9" x1="398.66" y1="1369.68" x2="404.03" y2="1269.72" xlink:href="#linear-gradient"/><linearGradient id="linear-gradient-10" x1="286" y1="1366.39" x2="319.28" y2="746.93" xlink:href="#linear-gradient"/><linearGradient id="linear-gradient-11" x1="335.83" y1="1377.27" x2="351.75" y2="1081.08" xlink:href="#linear-gradient"/><linearGradient id="linear-gradient-12" x1="457.1" y1="1346.55" x2="463.44" y2="1228.56" xlink:href="#linear-gradient"/><linearGradient id="linear-gradient-13" x1="397.92" y1="1307.72" x2="406.52" y2="1147.67" xlink:href="#linear-gradient"/><linearGradient id="linear-gradient-14" x1="530.88" y1="1402.56" x2="551.09" y2="1026.53" xlink:href="#linear-gradient"/><linearGradient id="linear-gradient-15" x1="547.02" y1="1293.21" x2="571.7" y2="833.89" xlink:href="#linear-gradient"/></defs><title>Artboard 1100</title><path class="cls-1" d="M421.72,1250.43l-8.81,6.43L382,1279.42,377.2,1283l-16.09,11.74a245.64,245.64,0,0,1-30.77-32.34c-3.61-4.5-7-9.07-10.31-13.66l49.66-36.27,14.89,10.88,7.9,5.77Z"/><path class="cls-2" d="M570.3,1221.52c-22.38,42.83-64.84,104.25-125.3,107.09a93.17,93.17,0,0,1-19.74-1.17l5.91-4.3,56.59-41.34Z"/><path class="cls-3" d="M599.07,1144.73l-16.31-11.91-92.89,67.84-13.65,10-66-48.2-40.55-29.61-55.92,40.84-25.94,18.95A240.72,240.72,0,0,1,277.37,1164c-13.74-46.38-13.07-94.54-3.8-141.29,30.25-152.65,152-290.4,162.94-302.43,18.82,20.51,158.2,176.22,168.29,344.77A293.54,293.54,0,0,1,599.07,1144.73Z"/><path class="cls-4" d="M125.35,1307.69c10.06-6.88,20.73-13.54,31.88-19.7l-29.74,21.73-19.38,14.14v110.8A540.58,540.58,0,0,1,32,1390.54C39.11,1382.33,74.64,1342.32,125.35,1307.69Z"/><path class="cls-5" d="M330.34,1262.35c11.72,3.7,29.73,10.36,46.86,20.6l-16.09,11.74-36.56,26.7-3.38,2.47v140c-47.93,17.23-101.15,10.83-148.76-3.78V1356.51l7.15-5.22,81.81-59.74,47.49-34.7q4.65.87,9.31,2C319.84,1259.29,324.24,1260.42,330.34,1262.35Z"/><path class="cls-6" d="M385.46,1422.72v-66.21l29-21.13h0l6.5-4.74a60.81,60.81,0,0,1,2.45,9.8C428.35,1371.28,408.41,1400.8,385.46,1422.72Z"/><path class="cls-7" d="M213.48,1246.9,157.23,1288l-29.74,21.73-2.14-2c-47.1-45.18-77.49-93.7-81.21-99.8,9.78-4.79,58.14-27.82,118.39-40,35.94-7.25,76.11-10.61,114.84-3.93a206.17,206.17,0,0,1,36.4,9.66l-25.94,18.95Z"/><path class="cls-8" d="M412.91,1256.86,382,1279.42,377.2,1283l-16.09,11.74-36.56,26.7-3.38,2.47v61.48c-3.4.65-6.62,1.17-9.63,1.57-48,6.39-93.06-10.22-132-35.62l81.81-59.74,47.49-34.7,11.17-8.16,49.66-36.27,14.89,10.88,7.9,5.77A170.71,170.71,0,0,1,412.91,1256.86Z"/><path class="cls-9" d="M385.46,1356.51l29-21.13c-7.28,10.44-17.48,19.09-29,26.14Z"/><path class="cls-10" d="M287.83,1192.61l-74.35,54.29c-20.44-24.21-37.25-51.64-50.95-79C126,1095,111.58,1022.74,110,1014.09c13.73-1.28,85.61-7.11,163.61,8.62,64.4,13,133,40.69,176.45,97.77q5.26,6.91,10,14.39c3.07,4.85,20.2,32.55,29.83,65.79l-13.65,10-66-48.2-40.55-29.61-55.92,40.84Z"/><path class="cls-11" d="M421.72,1250.43l-8.81,6.43L382,1279.42,377.2,1283l-16.09,11.74-36.56,26.7a193.53,193.53,0,0,1-63.18-29.84l47.49-34.7,11.17-8.16,49.66-36.27,14.89,10.88,7.9,5.77Z"/><path class="cls-12" d="M431.17,1323.14l56.59-41.34a71.21,71.21,0,0,1-4.67,7.83C471,1307.18,452.16,1317.54,431.17,1323.14Z"/><path class="cls-13" d="M421.72,1250.43l-8.81,6.43L382,1279.42c-3.8-17.85-1.89-37.72,2.54-56.12l7.9,5.77Z"/><path class="cls-14" d="M651.66,1212.38c-26.61,47.92-65.86,93.07-122.86,111.33-7,2.23-63,19.45-104.47,4.42l.93-.69,5.91-4.3,56.59-41.34,82.54-60.28,12.46-9.1Z"/><path class="cls-15" d="M703.28,1061.4c-1.86,11.38-12.14,69.95-40.67,129.73l-63.54-46.4-16.31-11.91-92.89,67.84-13.65,10-66-48.2a170.9,170.9,0,0,1,39.78-42c44.83-34,104.52-49,154.78-55.43C655.93,1058.55,697.29,1061,703.28,1061.4Z"/><path class="cls-16" d="M743.87,1364.51c.08.91.13,2,.17,3.14s.06,2.95.06,5.31a138.77,138.77,0,0,1-2.06,24.62,103.15,103.15,0,0,1-6.17,21.43,80.62,80.62,0,0,1-30.44,37q-20.62,13.61-46.45,13.6a83.48,83.48,0,0,1-32.5-6.46,85.73,85.73,0,0,1-45.87-45.81,84.62,84.62,0,0,1,46.56-110.77,90.74,90.74,0,0,1,34.1-6.39,87.4,87.4,0,0,1,33.7,6.51,98.7,98.7,0,0,1,29.94,19.88l-34.85,32.79a63.48,63.48,0,0,0-14.62-8.34,38.71,38.71,0,0,0-13.94-2.63q-15.54,0-25.88,10.34t-10.34,25.88q0,15,9.71,25.25a31.45,31.45,0,0,0,23.77,10.28,32.88,32.88,0,0,0,28-15h-36v-40.67Z"/><path class="cls-16" d="M758.61,1466.76v-119h48.21V1365a33.21,33.21,0,0,1,13.89-13.09q8.5-4.17,21.65-4.16h3.31v42q-19.54,0-28.28,8.85t-8.74,28.62v39.53Z"/><path class="cls-16" d="M974.77,1440.14q-14.5,14.63-29.19,21.65a70.94,70.94,0,0,1-47.76,5,57.37,57.37,0,0,1-15-6,60.39,60.39,0,0,1-22.11-22.57,63.77,63.77,0,0,1-3.48-54.72,60.79,60.79,0,0,1,13.25-20.05,56,56,0,0,1,19.65-13.48,63.77,63.77,0,0,1,24.34-4.58q20.91,0,36.84,11.89t24.17,33.7l-59,32.11-12.79-23.88,21.7-12.11a15.26,15.26,0,0,0-5.37-3.89,16.5,16.5,0,0,0-6.51-1.25q-7.31,0-12.22,6.56T896.4,1405q0,10.74,6.22,17.31t16.28,6.57A32,32,0,0,0,934,1425a45.21,45.21,0,0,0,13.49-11.13Z"/><path class="cls-16" d="M1106.05,1440.14q-14.52,14.63-29.2,21.65a70.91,70.91,0,0,1-47.75,5,57.29,57.29,0,0,1-15-6,60.44,60.44,0,0,1-22.1-22.57,63.73,63.73,0,0,1-3.49-54.72,61.1,61.1,0,0,1,13.25-20.05,55.92,55.92,0,0,1,19.66-13.48,63.68,63.68,0,0,1,24.33-4.58q20.91,0,36.85,11.89t24.16,33.7l-59,32.11-12.8-23.88,21.71-12.11a15.44,15.44,0,0,0-5.37-3.89,16.5,16.5,0,0,0-6.51-1.25q-7.32,0-12.23,6.56t-4.91,16.51q0,10.74,6.23,17.31t16.28,6.57a32.08,32.08,0,0,0,15.08-3.83,45.18,45.18,0,0,0,13.48-11.13Z"/><path class="cls-16" d="M1182.37,1466.76v-68.09a9.47,9.47,0,0,0-2.46-6.74,8.69,8.69,0,0,0-12.46,0,9.5,9.5,0,0,0-2.45,6.74v68.09h-47v-59q0-13.82,2.4-22.79a49.8,49.8,0,0,1,7.88-16.51,54.63,54.63,0,0,1,19.83-17,55.78,55.78,0,0,1,70.89,17,49.2,49.2,0,0,1,7.94,16.56q2.46,9.15,2.45,22.74v59Z"/><path class="cls-16" d="M1315.92,1466.53V1365.65q0-29.93,17-47.7t45.47-17.76q26.38,0,44.44,15t18.05,36.68a34.82,34.82,0,0,1-4.68,18.22,37.81,37.81,0,0,1-14,13.2q11,3.76,15.76,11.54t4.8,21.93v50h-51v-43.07q0-7.87-3.37-10.85t-13.08-3h-2.28v-40.22h2.51q8.34,0,12.63-3.2t4.28-9.48a11.85,11.85,0,0,0-3.6-8.8,12.14,12.14,0,0,0-8.85-3.54c-4.5,0-7.71,1.49-9.66,4.46s-2.91,8-2.91,15v102.48Z"/><path class="cls-16" d="M1580.64,1440.14q-14.51,14.63-29.19,21.65a70.94,70.94,0,0,1-47.76,5,57.37,57.37,0,0,1-15-6,60.39,60.39,0,0,1-22.11-22.57,63.77,63.77,0,0,1-3.48-54.72,60.79,60.79,0,0,1,13.25-20.05,55.88,55.88,0,0,1,19.65-13.48,63.73,63.73,0,0,1,24.34-4.58q20.9,0,36.84,11.89t24.17,33.7l-59,32.11-12.79-23.88,21.7-12.11a15.35,15.35,0,0,0-5.37-3.89,16.5,16.5,0,0,0-6.51-1.25q-7.31,0-12.22,6.56t-4.92,16.51q0,10.74,6.23,17.31t16.28,6.57a32,32,0,0,0,15.08-3.83,45.06,45.06,0,0,0,13.48-11.13Z"/><path class="cls-16" d="M1590.69,1466.76v-40.9h29.71a6.83,6.83,0,0,0,4.23-1.14,3.69,3.69,0,0,0,1.48-3.09,4,4,0,0,0-.57-2.17,6.22,6.22,0,0,0-2.06-1.82l-5.37-3.09q-17.35-10.27-22.5-17.42t-5.14-17.65q0-15,10.74-23.37t30-8.39h44.9v37.81h-26.27a5.05,5.05,0,0,0-3.55,1.26,4.16,4.16,0,0,0-1.37,3.2,3.18,3.18,0,0,0,.69,1.94,5.94,5.94,0,0,0,1.94,1.6l4.57,2.74.57.34q29.25,17.6,29.25,36.22a32.53,32.53,0,0,1-3.88,15.65,32.08,32.08,0,0,1-10.86,11.77,39.23,39.23,0,0,1-12.45,5q-7,1.54-21.71,1.54h-42.39Z"/><path class="cls-16" d="M1691.81,1311.38a26.56,26.56,0,0,1,8.11-19.59,27,27,0,0,1,19.76-8.06,26.49,26.49,0,0,1,19.54,8.06,27.75,27.75,0,1,1-47.41,19.59Zm4.22,155.38v-119h47.08v119Z"/><path class="cls-16" d="M1831,1401.76v-98.6H1878v89a202.59,202.59,0,0,1-.85,21.88,77.23,77.23,0,0,1-2.69,13.19q-5.82,19.2-21.08,30.39t-35.59,11.2a59.06,59.06,0,0,1-23-4.57,60.3,60.3,0,0,1-19.54-13.14,61.9,61.9,0,0,1-17.59-43.3q0-27.64,16.85-44.39t44.73-16.73c1.6,0,2.82,0,3.66,0a16.75,16.75,0,0,1,2.4.29v49.81a14.43,14.43,0,0,0-3.6-2.11,10.58,10.58,0,0,0-4-.74,12,12,0,0,0-9.14,3.94,14,14,0,0,0-3.65,9.88,13.43,13.43,0,0,0,3.77,9.65,12,12,0,0,0,9,4q6.86,0,10-4.69T1831,1401.76Z"/><path class="cls-16" d="M2013.65,1440.14q-14.52,14.63-29.19,21.65a70.94,70.94,0,0,1-47.76,5,57.23,57.23,0,0,1-15-6,60.39,60.39,0,0,1-22.11-22.57,63.67,63.67,0,0,1-3.48-54.72,60.79,60.79,0,0,1,13.25-20.05,55.79,55.79,0,0,1,19.65-13.48,63.73,63.73,0,0,1,24.34-4.58q20.89,0,36.84,11.89t24.16,33.7L1955.38,1423l-12.8-23.88,21.71-12.11a15.44,15.44,0,0,0-5.37-3.89,16.5,16.5,0,0,0-6.51-1.25q-7.31,0-12.22,6.56t-4.92,16.51q0,10.74,6.23,17.31t16.28,6.57a32,32,0,0,0,15.08-3.83,45.06,45.06,0,0,0,13.48-11.13Z"/><path class="cls-16" d="M2090,1466.76v-68.09a9.47,9.47,0,0,0-2.46-6.74,8.68,8.68,0,0,0-12.45,0,9.47,9.47,0,0,0-2.46,6.74v68.09h-47v-59q0-13.82,2.4-22.79a49.63,49.63,0,0,1,7.89-16.51,54.6,54.6,0,0,1,19.82-17,55.78,55.78,0,0,1,70.89,17,49,49,0,0,1,7.94,16.56q2.46,9.15,2.46,22.74v59Z"/><path class="cls-16" d="M2234.49,1391.93H2217.7q-8.68,0-13.71,4.11a13.58,13.58,0,0,0-5,11.08,13.28,13.28,0,0,0,5.09,10.86c3.38,2.74,7.94,4.11,13.65,4.11h16.79v44.67h-14.73q-31.2,0-50.22-16.56t-19-43.08q0-26.5,19.08-42.95t50.16-16.45h14.73Z"/><path class="cls-16" d="M2366.68,1440.14q-14.5,14.63-29.19,21.65a70.94,70.94,0,0,1-47.76,5,57.37,57.37,0,0,1-15-6,60.39,60.39,0,0,1-22.11-22.57,63.77,63.77,0,0,1-3.48-54.72,60.79,60.79,0,0,1,13.25-20.05,56,56,0,0,1,19.65-13.48,63.77,63.77,0,0,1,24.34-4.58q20.91,0,36.84,11.89t24.17,33.7l-59,32.11-12.79-23.88,21.71-12.11a15.44,15.44,0,0,0-5.37-3.89,16.58,16.58,0,0,0-6.52-1.25q-7.3,0-12.22,6.56t-4.91,16.51q0,10.74,6.22,17.31t16.28,6.57a32.09,32.09,0,0,0,15.09-3.83,45.3,45.3,0,0,0,13.48-11.13Z"/><path class="cls-16" d="M2376.74,1466.76v-40.9h29.7a6.83,6.83,0,0,0,4.23-1.14,3.69,3.69,0,0,0,1.48-3.09,4,4,0,0,0-.57-2.17,6.17,6.17,0,0,0-2-1.82l-5.37-3.09q-17.37-10.27-22.51-17.42t-5.14-17.65q0-15,10.74-23.37t30-8.39h44.91v37.81h-26.28a5,5,0,0,0-3.54,1.26,4.13,4.13,0,0,0-1.37,3.2,3.16,3.16,0,0,0,.68,1.94,5.94,5.94,0,0,0,1.94,1.6l4.57,2.74.57.34q29.25,17.6,29.25,36.22a32.41,32.41,0,0,1-3.88,15.65,32.08,32.08,0,0,1-10.86,11.77,39.14,39.14,0,0,1-12.45,5q-7,1.54-21.71,1.54h-42.38Z"/></svg>